# xmcd
#
# Track frame offsets: 
#        150
#        18579
#        37876
#        58229
#        74429
#        89032
#        107222
#        123808
#        138208
#        152723
#        165928
#        183243
#
# Disc length: 2656 seconds
#
# Revision: 0
# Processed by: cddbd v1.5.2PL0 Copyright (c) Steve Scherf et al.
# Submitted via: ExactAudioCopyFreeDBPlugin 1.0
#
DISCID=9c0a5e0c
DTITLE=To Be Frank - U 
DYEAR=2015
DGENRE=Electronic
TTITLE0=Let It Go
TTITLE1=If You Love Her
TTITLE2=Broken
TTITLE3=Boxes
TTITLE4=Play
TTITLE5=Gleam
TTITLE6=Show Me The Way
TTITLE7=Half The Man
TTITLE8=Give It Up
TTITLE9=Never
TTITLE10=Nothing
TTITLE11=Home
EXTD=
EXTT0=
EXTT1=
EXTT2=
EXTT3=
EXTT4=
EXTT5=
EXTT6=
EXTT7=
EXTT8=
EXTT9=
EXTT10=
EXTT11=
PLAYORDER=
